<svg width="51" height="51" viewBox="0 0 51 51" fill="none" xmlns="http://www.w3.org/2000/svg">
<g id="Group 28">
<g id="Group 17">
<g id="Ellipse 2">
<circle cx="25.5" cy="25.5" r="25.5" fill="white"/>
<circle cx="25.5" cy="25.5" r="25.5" fill="url(#paint0_linear_105_13929)"/>
</g>
</g>
<path id="coolicon" d="M25.7327 40.3672C23.6157 38.55 21.6534 36.5578 19.8664 34.4114C17.1846 31.1881 14 26.3877 14 21.8133C13.9976 17.0357 16.8565 12.7276 21.2426 10.8992C25.6286 9.07082 30.6773 10.0826 34.0328 13.4623C36.2393 15.673 37.4753 18.68 37.4655 21.8133C37.4655 26.3877 34.2808 31.1881 31.5991 34.4114C29.812 36.5578 27.8498 38.55 25.7327 40.3672ZM25.7327 16.7531C23.9363 16.7531 22.2763 17.7176 21.3781 19.2832C20.4799 20.8488 20.4799 22.7777 21.3781 24.3434C22.2763 25.909 23.9363 26.8734 25.7327 26.8734C28.5098 26.8734 30.761 24.6079 30.761 21.8133C30.761 19.0186 28.5098 16.7531 25.7327 16.7531Z" fill="#16151C"/>
</g>
<defs>
<linearGradient id="paint0_linear_105_13929" x1="-1.34038" y1="69.1398" x2="50.6847" y2="53.7911" gradientUnits="userSpaceOnUse">
<stop stop-color="#AF1CEA"/>
<stop offset="1" stop-color="#645FFF"/>
</linearGradient>
</defs>
</svg>
