<svg width="44" height="44" viewBox="0 0 44 44" fill="none" xmlns="http://www.w3.org/2000/svg">
<g id="Logo 1" clip-path="url(#clip0_105_13946)">
<g id="Artboard">
<g id="Oval">
<path d="M22 44C34.1503 44 44 34.1503 44 22C44 9.84974 34.1503 0 22 0C9.84974 0 0 9.84974 0 22C0 34.1503 9.84974 44 22 44Z" fill="white"/>
<path d="M22 44C34.1503 44 44 34.1503 44 22C44 9.84974 34.1503 0 22 0C9.84974 0 0 9.84974 0 22C0 34.1503 9.84974 44 22 44Z" fill="url(#paint0_linear_105_13946)"/>
</g>
<path id="Path-3" fill-rule="evenodd" clip-rule="evenodd" d="M9.96276 21.766C16.3762 18.9717 20.6528 17.1296 22.7927 16.2396C28.9023 13.6984 30.1718 13.2569 30.9993 13.2423C31.1813 13.2391 31.5882 13.2842 31.8518 13.4981C32.0744 13.6787 32.1356 13.9227 32.1649 14.0939C32.1942 14.2651 32.2307 14.6552 32.2017 14.96C31.8706 18.4387 30.438 26.8806 29.7092 30.7769C29.4008 32.4255 28.7936 32.9783 28.2057 33.0324C26.9281 33.1499 25.958 32.1881 24.7206 31.3769C22.7843 30.1077 21.6904 29.3176 19.8109 28.079C17.6388 26.6476 19.0469 25.8609 20.2848 24.5752C20.6087 24.2387 26.2378 19.1187 26.3467 18.6542C26.3604 18.5961 26.373 18.3796 26.2444 18.2652C26.1157 18.1509 25.9259 18.19 25.7889 18.2211C25.5947 18.2652 22.5014 20.3097 16.5091 24.3547C15.6311 24.9576 14.8359 25.2513 14.1233 25.2359C13.3378 25.219 11.8268 24.7918 10.7035 24.4267C9.32576 23.9788 8.23075 23.742 8.3261 22.9814C8.37577 22.5853 8.92132 22.1801 9.96276 21.766Z" fill="#26202F"/>
</g>
</g>
<defs>
<linearGradient id="paint0_linear_105_13946" x1="-1.15641" y1="59.65" x2="43.728" y2="46.408" gradientUnits="userSpaceOnUse">
<stop stop-color="#AF1CEA"/>
<stop offset="1" stop-color="#645FFF"/>
</linearGradient>
<clipPath id="clip0_105_13946">
<rect width="44" height="44" fill="white"/>
</clipPath>
</defs>
</svg>
