<svg width="44" height="44" viewBox="0 0 44 44" fill="none" xmlns="http://www.w3.org/2000/svg">
<g id="Logo 3" clip-path="url(#clip0_105_13936)">
<g id="Artboard">
<g id="Oval">
<path d="M22.0234 44C34.1737 44 44.0234 34.1503 44.0234 22C44.0234 9.84974 34.1737 0 22.0234 0C9.87317 0 0.0234375 9.84974 0.0234375 22C0.0234375 34.1503 9.87317 44 22.0234 44Z" fill="white"/>
<path d="M22.0234 44C34.1737 44 44.0234 34.1503 44.0234 22C44.0234 9.84974 34.1737 0 22.0234 0C9.87317 0 0.0234375 9.84974 0.0234375 22C0.0234375 34.1503 9.87317 44 22.0234 44Z" fill="url(#paint0_linear_105_13936)"/>
</g>
</g>
<g id="Group 1368">
<path id="Vector" d="M23.6897 31.5181C13.6614 31.5181 7.94146 24.6431 7.70312 13.2031H12.7265C12.8915 21.5998 16.5947 25.1565 19.528 25.8898V13.2031H24.2582V20.4448C27.1549 20.1331 30.1979 16.8331 31.2245 13.2031H35.9546C35.1663 17.6765 31.8663 20.9765 29.5196 22.3331C31.8663 23.4331 35.6248 26.3115 37.0548 31.5181H31.8479C30.7296 28.0348 27.9432 25.3398 24.2582 24.9731V31.5181H23.6897Z" fill="#26202F"/>
</g>
</g>
<defs>
<linearGradient id="paint0_linear_105_13936" x1="-1.13297" y1="59.65" x2="43.7515" y2="46.408" gradientUnits="userSpaceOnUse">
<stop stop-color="#AF1CEA"/>
<stop offset="1" stop-color="#645FFF"/>
</linearGradient>
<clipPath id="clip0_105_13936">
<rect width="44" height="44" fill="white"/>
</clipPath>
</defs>
</svg>
